<svg xmlns="http://www.w3.org/2000/svg" version="1.1" xmlns:xlink="http://www.w3.org/1999/xlink" xmlns:svgjs="http://svgjs.com/svgjs" width="1585" height="300" transform="matrix(1,0,0,1,0,0)">
  <text font-family="DM Sans" font-size="260" text-anchor="left" x="310" charspacing="20px">
    <tspan dy="239.20000000000002" x="310">Chearub</tspan>
  </text>
  <path transform="matrix(6.123233995736766e-17,1,-1,6.123233995736766e-17,148,149.33)" d="M-33.772,100.277A6,6,76.74264809437521,0,1,-37.126,91.487L26.583,-15.617A6,6,-130.40149195380755,0,0,27.104,-20.624L14,-59A1.675863888015581,1.675863888015581,4.430398240844794,0,1,17.125,-60.204L99.823,131.97A6,6,49.22844561858756,0,1,92.509,140.064ZM33.772,-100.277A6,6,76.74264809437523,0,1,37.126,-91.487L-26.583,15.617A6,6,-130.40149195380755,0,0,-27.104,20.624L-14,59A1.675863888015576,1.675863888015576,4.430398240844781,0,1,-17.125,60.204L-99.823,-131.97A6,6,49.22844561858756,0,1,-92.509,-140.064Z"/>
</svg>